<svg width="149" height="35" viewBox="0 0 149 35" fill="none" xmlns="http://www.w3.org/2000/svg">
<path d="M36.2208 21.3607C36.3307 21.4976 36.3922 21.667 36.396 21.8425C36.396 22.0177 36.2646 22.2367 35.9142 22.2367H32.8484C32.1476 22.2367 32.1914 22.1053 31.8848 21.6673L26.0159 12.5136V21.6235C26.0159 22.1053 25.7531 22.1929 25.4904 22.1929H22.8187C22.3807 22.1929 22.3369 22.0177 22.3369 21.6235V3.05326C22.3369 2.52768 22.5121 2.48389 22.9501 2.48389H25.4904C25.9721 2.48389 26.0597 2.65908 26.0597 3.05326V10.9369L31.8848 3.05326C32.279 2.48389 32.3666 2.48389 32.8922 2.48389H34.8631C35.0821 2.48389 35.3448 2.52768 35.3448 2.83427C35.3145 3.05871 35.2237 3.27067 35.0821 3.44744L29.3884 11.0682L36.2208 21.3607Z" fill="#004F9E"/>
<path d="M41.8708 21.6231C41.8708 22.1048 41.7394 22.1924 41.3014 22.1924H39.024C38.5422 22.1924 38.4546 22.061 38.4546 21.6231V9.92906C38.4546 9.1845 38.5422 8.87791 38.805 8.61513C39.5057 7.95816 41.9146 7.34499 44.4111 7.34499C45.2258 7.32433 46.0345 7.48907 46.7762 7.82677C47.0558 7.98048 47.2863 8.21001 47.4413 8.48894C47.5962 8.76786 47.6693 9.08487 47.6521 9.40349C47.658 9.60269 47.6238 9.80105 47.5516 9.98681C47.4794 10.1726 47.3706 10.3419 47.2318 10.4849C47.0929 10.6278 46.9267 10.7415 46.7432 10.819C46.5596 10.8966 46.3623 10.9365 46.163 10.9364C45.8595 10.9283 45.5671 10.8205 45.3308 10.6298C44.9805 10.367 44.8053 9.88526 44.4987 9.57868C44.3559 9.40786 44.1735 9.27462 43.9674 9.19063C43.7612 9.10664 43.5376 9.07446 43.3161 9.0969C43.0299 9.06785 42.7421 9.13353 42.4968 9.28386C42.2516 9.43418 42.0624 9.66085 41.9584 9.92906C41.872 10.213 41.8277 10.5082 41.827 10.805V21.6231H41.8708Z" fill="#004F9E"/>
<path d="M56.3238 12.2942C56.2362 11.0679 55.5354 9.44736 53.9149 9.44736C53.4361 9.46059 52.9686 9.59629 52.5572 9.84154C50.9804 10.8051 50.9805 13.0388 50.9805 13.1264L56.3238 12.2942ZM51.068 14.8783C51.1994 16.7616 52.3382 19.477 54.9222 19.477C55.6668 19.477 56.9369 19.3456 58.4261 17.3748C58.6889 17.0244 58.864 16.8054 59.2582 16.8054C59.959 16.8054 60.0028 17.5937 60.0028 17.6813C59.938 18.2595 59.7751 18.8223 59.521 19.3456C59.0933 20.3272 58.3798 21.1572 57.4736 21.7275C56.5674 22.2977 55.5105 22.5819 54.4405 22.5429C51.5498 22.5429 48.2212 20.6158 48.2212 14.9221C48.2212 9.40356 51.4622 7.30127 54.4405 7.30127C56.6304 7.30127 58.6451 8.26482 59.5648 10.8927C59.7626 11.4273 59.8806 11.988 59.9152 12.557C59.9319 12.6937 59.9194 12.8324 59.8787 12.964C59.838 13.0956 59.7699 13.2171 59.6789 13.3205C59.5879 13.4239 59.4761 13.5069 59.3507 13.564C59.2254 13.6211 59.0894 13.6511 58.9516 13.6519L51.068 14.8783Z" fill="#004F9E"/>
<path d="M70.5144 9.92897C69.9975 9.49514 69.3495 9.24826 68.6749 9.2282C66.5726 9.2282 65.2149 11.5495 65.2149 14.7905C65.2149 17.2432 65.9157 18.9951 67.1858 19.8711C67.6458 20.1574 68.1769 20.3091 68.7187 20.309C70.2954 20.309 70.4706 19.1703 70.4706 18.5571V9.92897H70.5144ZM70.5144 1.4322C70.4996 1.35225 70.5037 1.26994 70.5263 1.19185C70.549 1.11376 70.5896 1.04205 70.645 0.982465C70.7003 0.922878 70.7688 0.877064 70.845 0.848687C70.9212 0.820309 71.003 0.810155 71.0838 0.819036H73.3175C73.8431 0.819036 73.9745 0.950429 73.9745 1.30081V19.3893C73.9804 19.9122 73.8441 20.4269 73.5803 20.8784C72.5729 22.2361 69.4633 22.5427 68.2807 22.5427C63.682 22.5427 61.7549 19.3017 61.7549 15.3161C61.7549 12.1189 63.3754 7.3011 67.9742 7.3011C68.8765 7.28805 69.7619 7.54755 70.5144 8.04566V1.4322Z" fill="#004F9E"/>
<path d="M82.6461 20.2651C84.617 20.2651 85.5367 17.7248 85.5367 14.9655C85.5367 12.907 84.7922 9.44702 82.3833 9.44702C80.5 9.44702 79.4488 11.7245 79.4488 14.5714C79.4926 17.5496 80.7628 20.2651 82.6461 20.2651ZM82.5147 22.5863C77.8283 22.5863 75.8574 18.6007 75.8574 14.7465C75.8574 11.0675 78.2225 7.34473 82.6023 7.34473C86.9821 7.34473 89.2157 11.2427 89.2157 14.7903C89.2157 19.6519 86.3251 22.5863 82.5147 22.5863Z" fill="#004F9E"/>
<path d="M95.6542 20.0022C96.3988 20.0898 97.1871 20.1336 97.5375 20.1336C98.3697 20.1336 101.83 20.046 101.83 16.6736C101.853 15.8038 101.574 14.9527 101.041 14.2647C100.165 13.1698 98.939 12.8194 96.8367 12.8194C96.3988 12.8194 96.0922 12.8632 95.6542 12.8632V20.0022ZM95.6542 10.9361H96.4864C97.6689 10.9361 99.4208 10.8923 100.384 9.3594C100.727 8.83939 100.91 8.23029 100.91 7.60749C100.91 6.16216 100.209 4.41025 97.2309 4.41025C96.7038 4.3887 96.1757 4.41804 95.6542 4.49784V10.9361ZM91.9314 3.62189C91.9314 2.70214 92.4132 2.57074 93.6395 2.43935C94.1651 2.39555 95.479 2.26416 96.9681 2.26416C99.377 2.26416 104.677 2.52695 104.677 7.12571C104.677 10.1916 101.83 11.4179 101.085 11.6807C105.202 12.5566 105.771 15.3597 105.771 16.8926C105.811 18.0774 105.405 19.234 104.633 20.1336C103.144 21.8855 100.735 22.4111 97.0119 22.4111C95.6649 22.3992 94.3197 22.3114 92.9825 22.1483C92.238 22.0169 91.9752 21.8855 91.9752 21.0096V3.62189H91.9314Z" fill="#004F9E"/>
<path d="M114.093 15.1407C112.56 15.6225 110.983 16.3671 110.983 18.2066C110.983 19.6081 111.815 20.6154 113.305 20.6154C115.056 20.6154 115.056 19.3453 115.056 18.7759V14.8341L114.093 15.1407ZM115.056 11.8121C115.056 10.323 114.794 9.27183 113.305 9.27183C110.939 9.27183 111.947 12.2063 109.801 12.2063C109.605 12.208 109.41 12.1707 109.229 12.0965C109.047 12.0223 108.882 11.9127 108.744 11.774C108.605 11.6354 108.496 11.4705 108.421 11.2891C108.347 11.1076 108.31 10.9132 108.312 10.7172C108.338 10.2069 108.521 9.7172 108.837 9.31563C110.02 7.65131 112.516 7.34473 113.786 7.34473C117.728 7.34473 118.341 9.49082 118.341 11.5055V19.2577C118.388 19.8769 118.266 20.4971 117.991 21.0534C117.027 22.4112 114.137 22.5863 112.867 22.5863C109.275 22.5863 107.611 20.9658 107.611 18.6007C107.611 15.0531 111.991 14.0458 114.181 13.5202L115.056 13.3012V11.8121Z" fill="#004F9E"/>
<path d="M130.079 22.1923C129.598 22.1923 129.466 22.0171 129.466 21.5353V11.6809C129.466 10.8487 129.291 9.27197 127.101 9.27197C125.962 9.27197 125.262 9.79755 124.955 10.4983C124.842 10.8666 124.797 11.2526 124.824 11.6371V21.5791C124.824 22.0171 124.78 22.2361 124.21 22.2361H121.933C121.451 22.2361 121.364 22.0609 121.364 21.6667V10.2793C121.339 10.0013 121.373 9.72119 121.464 9.45716C121.554 9.19313 121.699 8.951 121.889 8.7464C122.634 8.00184 124.999 7.38867 127.408 7.38867C129.16 7.38867 132.05 7.56386 132.795 10.2355C132.902 10.7391 132.946 11.254 132.926 11.7684V21.6667C132.926 22.0609 132.839 22.2361 132.357 22.2361H130.079V22.1923Z" fill="#004F9E"/>
<path d="M148.65 21.36C148.825 21.5352 148.912 21.6666 148.912 21.798C148.912 22.017 148.781 22.1922 148.431 22.1922H145.365C145.191 22.2191 145.014 22.1914 144.857 22.1129C144.7 22.0345 144.571 21.9091 144.489 21.7542L139.496 15.0531V21.6666C139.496 21.9732 139.452 22.1922 138.927 22.1922H136.605C136.08 22.1922 136.036 22.017 136.036 21.6666V1.34442C136.036 0.862645 136.211 0.818848 136.474 0.818848H138.927C139.189 0.818848 139.496 0.818848 139.496 1.25683V13.8706L144.489 8.30826C144.971 7.73889 145.146 7.73889 145.628 7.73889H147.511C147.73 7.73889 148.08 7.73889 148.08 8.08927C148.048 8.28694 147.956 8.47013 147.817 8.61485L142.868 13.9144L148.65 21.36Z" fill="#004F9E"/>
<path d="M83.8289 28.1052C83.4347 28.1052 83.2595 28.2366 83.2595 28.7183V30.4265C83.3471 30.4265 83.4785 30.4703 83.6975 30.4703C83.8624 30.4858 84.0287 30.4648 84.1846 30.4086C84.3404 30.3525 84.482 30.2627 84.5991 30.1456C84.7162 30.0284 84.8061 29.8869 84.8622 29.731C84.9183 29.5752 84.9394 29.4088 84.9238 29.2439C84.9452 29.0932 84.932 28.9396 84.8852 28.7947C84.8384 28.6498 84.7593 28.5175 84.6538 28.4078C84.5483 28.2981 84.4191 28.2138 84.2762 28.1613C84.1333 28.1089 83.9803 28.0897 83.8289 28.1052ZM85.4932 29.2001C85.5023 29.4229 85.4636 29.6451 85.3798 29.8518C85.2959 30.0584 85.1688 30.2447 85.0071 30.3982C84.8453 30.5517 84.6525 30.6688 84.4418 30.7416C84.231 30.8145 84.0071 30.8414 83.7851 30.8206C83.5942 30.8337 83.4024 30.8189 83.2157 30.7768V32.6163H82.6025V28.7621C82.6025 27.93 83.0843 27.7986 83.7851 27.7986C85.0114 27.7548 85.4932 28.368 85.4932 29.2001Z" fill="#A1A1A0"/>
<path d="M86.9825 30.2515V32.5727H86.4131V27.8426H86.9825V30.0763L88.5154 28.2806C88.6127 28.1397 88.744 28.0256 88.8971 27.9491C89.0502 27.8725 89.2203 27.8359 89.3913 27.8426H89.6103L87.9898 29.6383C87.8131 29.8498 87.5876 30.0151 87.3328 30.1201V30.2515C87.5799 30.3502 87.8036 30.4994 87.9898 30.6894L89.6979 32.5727H89.4351C89.2666 32.5652 89.1015 32.5222 88.9506 32.4468C88.7997 32.3713 88.6664 32.265 88.5592 32.1348L86.9825 30.2515Z" fill="#A1A1A0"/>
<path d="M92.1942 28.1051C91.3621 28.1051 90.7927 28.9811 90.7927 30.076C90.7927 31.3899 91.3621 32.2221 92.238 32.2221C93.114 32.2221 93.6396 31.3461 93.6396 30.2074C93.6396 28.9811 93.0702 28.1051 92.1942 28.1051ZM92.1942 32.6601C91.0117 32.6601 90.1357 31.6965 90.1357 30.1636C90.1357 28.7621 91.0117 27.7109 92.1942 27.7109C93.3768 27.7109 94.2527 28.7621 94.2527 30.1636C94.2527 31.6965 93.3768 32.6601 92.1942 32.6601Z" fill="#A1A1A0"/>
<path d="M98.2383 30.2512H97.7127V31.7403C97.7127 32.0907 97.8879 32.2659 98.4134 32.2659C98.5564 32.2855 98.702 32.2739 98.8401 32.2321C98.9783 32.1902 99.1057 32.119 99.2139 32.0234C99.322 31.9278 99.4082 31.8099 99.4665 31.6779C99.5249 31.5459 99.5541 31.4029 99.5522 31.2586C99.596 30.6454 99.158 30.2512 98.2383 30.2512ZM98.3258 28.1051C97.9317 28.1051 97.7565 28.2365 97.7565 28.6745V29.9008C97.8441 29.9008 98.0193 29.9446 98.2383 29.9446C98.8952 29.9446 99.3332 29.5942 99.3332 28.9811C99.3346 28.8541 99.3085 28.7283 99.2565 28.6125C99.2045 28.4966 99.1279 28.3935 99.0321 28.3102C98.9363 28.2268 98.8235 28.1653 98.7015 28.1299C98.5796 28.0945 98.4514 28.0861 98.3258 28.1051ZM98.4134 32.6163C97.5375 32.6163 97.1433 32.3535 97.1433 31.7841V28.5869C97.1433 27.8861 97.6689 27.7109 98.3258 27.7109C99.4646 27.7109 99.8588 28.2365 99.8588 28.8497C99.8584 29.098 99.7769 29.3393 99.6267 29.537C99.4764 29.7346 99.2657 29.8778 99.0266 29.9446V29.9884C99.6398 30.1198 100.209 30.4702 100.209 31.2148C100.209 31.9593 99.6836 32.6163 98.4134 32.6163Z" fill="#A1A1A0"/>
<path d="M103.012 29.8134C103.012 29.5068 102.793 29.3754 102.443 29.3754C101.873 29.3754 101.435 29.8572 101.435 30.9084C101.435 31.7843 101.786 32.2661 102.268 32.2661C102.413 32.2601 102.556 32.2216 102.685 32.1534C102.813 32.0852 102.925 31.989 103.012 31.8719V29.8134ZM103.582 32.5727H103.406C103.331 32.5775 103.257 32.5528 103.2 32.5037C103.142 32.4546 103.107 32.385 103.1 32.3099V32.1785H103.056C102.952 32.3257 102.814 32.4461 102.654 32.5298C102.494 32.6136 102.317 32.6583 102.136 32.6603C101.392 32.6603 100.91 32.0033 100.91 30.9959C100.91 29.7696 101.654 29.0688 102.53 29.0688C102.803 29.0704 103.071 29.1301 103.319 29.244C103.415 29.28 103.498 29.3465 103.553 29.4334C103.608 29.5204 103.634 29.6231 103.625 29.7258V32.5727H103.582Z" fill="#A1A1A0"/>
<path d="M106.691 32.5728V30.0763C106.691 29.5945 106.385 29.3317 105.859 29.3317C105.334 29.3317 105.159 29.4631 105.159 29.8135V32.5728H104.589V29.6383C104.588 29.548 104.611 29.4591 104.658 29.3816C104.704 29.3042 104.772 29.2414 104.852 29.2003C105.168 29.0589 105.514 28.9986 105.859 29.0251C106.735 29.0251 107.217 29.3755 107.217 30.0325V32.5728H106.691Z" fill="#A1A1A0"/>
<path d="M108.794 32.5729H108.224V27.5361H108.794V30.6896L109.845 29.4194C109.925 29.3228 110.025 29.2452 110.139 29.1921C110.252 29.1391 110.376 29.112 110.502 29.1129H110.721L109.713 30.2954C109.565 30.4887 109.369 30.6397 109.144 30.7334V30.821C109.276 30.821 109.494 30.9524 109.757 31.2589L110.896 32.5729H110.677C110.533 32.5849 110.389 32.5589 110.258 32.4974C110.127 32.4359 110.015 32.3411 109.932 32.2225L108.838 30.8648V32.5729H108.794Z" fill="#A1A1A0"/>
<path d="M114.619 28.1052C114.224 28.1052 114.049 28.2366 114.049 28.7183V30.4265C114.137 30.4265 114.268 30.4703 114.487 30.4703C114.652 30.4858 114.818 30.4648 114.974 30.4086C115.13 30.3525 115.272 30.2627 115.389 30.1456C115.506 30.0284 115.596 29.8869 115.652 29.731C115.708 29.5752 115.729 29.4088 115.714 29.2439C115.735 29.0932 115.722 28.9396 115.675 28.7947C115.628 28.6498 115.549 28.5175 115.443 28.4078C115.338 28.2981 115.209 28.2138 115.066 28.1613C114.923 28.1089 114.77 28.0897 114.619 28.1052ZM116.327 29.2001C116.336 29.4229 116.297 29.6451 116.213 29.8518C116.129 30.0584 116.002 30.2447 115.841 30.3982C115.679 30.5517 115.486 30.6688 115.275 30.7416C115.065 30.8145 114.841 30.8414 114.619 30.8206C114.428 30.8337 114.236 30.8189 114.049 30.7768V32.6163H113.436V28.7621C113.436 27.93 113.918 27.7986 114.619 27.7986C115.801 27.7548 116.327 28.368 116.327 29.2001Z" fill="#A1A1A0"/>
<path d="M118.342 29.3315C117.685 29.3315 117.422 30.0323 117.422 30.733C117.422 31.4338 117.685 32.3097 118.385 32.3097C119.086 32.3097 119.305 31.5652 119.305 30.8644C119.305 30.1636 119.042 29.3315 118.342 29.3315ZM118.385 32.6601C117.378 32.6601 116.853 31.7842 116.853 30.8206C116.853 29.8571 117.378 29.0249 118.385 29.0249C119.393 29.0249 119.918 29.8571 119.918 30.8206C119.918 31.7842 119.393 32.6601 118.385 32.6601Z" fill="#A1A1A0"/>
<path d="M121.32 27.5361H120.75V32.6167H121.32V27.5361Z" fill="#A1A1A0"/>
<path d="M123.553 30.6455C124.079 30.8645 124.648 31.0835 124.648 31.6967C124.648 32.3098 124.123 32.704 123.378 32.704C123.074 32.7329 122.77 32.6514 122.52 32.4746C122.271 32.2977 122.094 32.0372 122.021 31.7405C122.148 31.6838 122.294 31.6795 122.425 31.7287C122.556 31.7778 122.662 31.8764 122.721 32.0033C122.786 32.1217 122.88 32.2208 122.996 32.2901C123.111 32.3594 123.243 32.3965 123.378 32.3974C123.466 32.4086 123.554 32.4011 123.638 32.3754C123.723 32.3498 123.8 32.3065 123.867 32.2486C123.933 32.1906 123.986 32.1193 124.023 32.0392C124.059 31.9592 124.078 31.8723 124.079 31.7843C124.079 31.3901 123.729 31.2587 123.247 31.0397C122.634 30.8207 122.196 30.5579 122.196 29.9886C122.196 29.4192 122.765 29.0688 123.378 29.0688C123.648 29.0448 123.918 29.1207 124.136 29.2821C124.354 29.4436 124.505 29.6793 124.561 29.9448C124.481 29.9933 124.391 30.0233 124.298 30.0324C124.199 30.0218 124.105 29.9832 124.028 29.9211C123.95 29.859 123.892 29.7761 123.86 29.682C123.815 29.5831 123.74 29.5006 123.646 29.4457C123.552 29.3909 123.443 29.3663 123.334 29.3754C123.262 29.3679 123.188 29.376 123.118 29.3992C123.049 29.4224 122.985 29.4601 122.931 29.5098C122.877 29.5595 122.835 29.62 122.806 29.6875C122.777 29.7549 122.763 29.8277 122.765 29.901C122.765 30.2951 123.072 30.4265 123.553 30.6455Z" fill="#A1A1A0"/>
<path d="M126.006 32.5729H125.437V27.5361H126.006V30.6896L127.058 29.4194C127.137 29.3228 127.238 29.2452 127.351 29.1921C127.465 29.1391 127.589 29.112 127.714 29.1129H127.933L126.926 30.2954C126.778 30.4887 126.582 30.6397 126.357 30.7334V30.821C126.488 30.821 126.707 30.9524 126.97 31.2589L128.109 32.5729H127.89C127.746 32.5849 127.601 32.5589 127.47 32.4974C127.34 32.4359 127.228 32.3411 127.145 32.2225L126.05 30.8648V32.5729H126.006Z" fill="#A1A1A0"/>
<path d="M128.634 29.1126H129.203V32.6164H128.634V29.1126ZM128.941 28.4556C128.871 28.4556 128.804 28.4351 128.746 28.3966C128.688 28.3581 128.644 28.3034 128.617 28.2394C128.59 28.1753 128.584 28.1049 128.597 28.0369C128.611 27.9689 128.644 27.9065 128.693 27.8575C128.742 27.8085 128.804 27.7751 128.872 27.7616C128.94 27.7481 129.011 27.755 129.075 27.7816C129.139 27.8081 129.194 27.853 129.232 27.9106C129.271 27.9682 129.291 28.036 129.291 28.1053C129.295 28.1523 129.289 28.1996 129.273 28.2439C129.256 28.2883 129.231 28.3285 129.197 28.3619C129.164 28.3953 129.124 28.4209 129.079 28.4371C129.035 28.4533 128.988 28.4596 128.941 28.4556Z" fill="#A1A1A0"/>
<path d="M135.642 30.1637V31.5214C135.642 32.0908 135.072 32.6601 134.065 32.6601C132.576 32.6601 131.919 31.4776 131.919 30.1637C131.919 28.8497 132.663 27.7548 133.977 27.7548C134.341 27.7429 134.697 27.8528 134.991 28.0671C135.285 28.2814 135.498 28.5877 135.598 28.9373C135.518 28.9859 135.428 29.0158 135.335 29.0249C135.116 29.0249 134.941 28.9373 134.766 28.6307C134.692 28.4849 134.579 28.3626 134.44 28.2775C134.301 28.1923 134.14 28.1478 133.977 28.149C133.189 28.149 132.576 28.8497 132.576 30.1199C132.576 31.39 133.189 32.3097 134.065 32.3097C134.809 32.3097 135.072 31.9594 135.072 31.5214V30.6016H134.722C134.415 30.6016 134.196 30.4702 134.196 30.2075H135.642V30.1637Z" fill="#A1A1A0"/>
<path d="M138.051 29.6384C137.983 29.6384 137.915 29.6226 137.855 29.5921C137.794 29.5617 137.741 29.5176 137.7 29.4632C137.662 29.4205 137.614 29.3866 137.561 29.3639C137.508 29.3412 137.451 29.3303 137.394 29.3318C137.218 29.3318 137.087 29.4632 137.087 29.726V32.5728H136.518V29.6384C136.51 29.5471 136.531 29.4557 136.579 29.3771C136.626 29.2986 136.696 29.2368 136.78 29.2004C137.028 29.0865 137.296 29.0267 137.569 29.0252C137.728 29.0114 137.889 29.0316 138.04 29.0844C138.191 29.1373 138.329 29.2216 138.445 29.3318C138.422 29.4194 138.371 29.4971 138.3 29.5526C138.229 29.6081 138.141 29.6383 138.051 29.6384Z" fill="#A1A1A0"/>
<path d="M140.284 29.3315C139.627 29.3315 139.365 30.0323 139.365 30.733C139.365 31.4338 139.627 32.3097 140.328 32.3097C141.029 32.3097 141.248 31.5652 141.248 30.8644C141.248 30.1636 140.985 29.3315 140.284 29.3315ZM140.328 32.6601C139.321 32.6601 138.795 31.7842 138.795 30.8206C138.795 29.8571 139.321 29.0249 140.328 29.0249C141.335 29.0249 141.861 29.8571 141.861 30.8206C141.861 31.7842 141.335 32.6601 140.328 32.6601Z" fill="#A1A1A0"/>
<path d="M143.219 29.1128V31.6093C143.219 32.091 143.481 32.3538 144.007 32.3538C144.533 32.3538 144.664 32.2224 144.664 31.8721V29.1128H145.233V32.0472C145.235 32.1375 145.211 32.2265 145.165 32.3039C145.118 32.3814 145.051 32.4442 144.971 32.4852C144.656 32.6312 144.309 32.6916 143.963 32.6604C143.087 32.6604 142.605 32.31 142.605 31.6093V29.1128H143.219Z" fill="#A1A1A0"/>
<path d="M147.423 29.3752C146.985 29.3752 146.81 29.5504 146.81 29.8132V32.0469C146.992 32.2039 147.228 32.2827 147.467 32.2659C148.08 32.2659 148.474 31.6527 148.474 30.7768C148.431 29.7694 147.949 29.3752 147.423 29.3752ZM146.81 34.1492H146.241V29.7256C146.233 29.6285 146.254 29.5313 146.301 29.4458C146.347 29.3603 146.418 29.2901 146.504 29.2438C146.783 29.0837 147.102 29.0076 147.423 29.0248C148.474 29.0248 149 29.6818 149 30.6892C149 31.6965 148.474 32.6163 147.467 32.6163C147.229 32.6251 146.995 32.5473 146.81 32.3973V34.1492Z" fill="#A1A1A0"/>
<path d="M0.405292 1.41852C0.194891 1.16682 0.0550359 0.8638 0 0.540389C0 0.0675487 0.371518 0 0.675486 0H3.5463C4.32311 0 4.42444 0 4.9986 0.810584L13.5773 12.3952L4.9986 23.9798C4.42444 24.7904 4.32311 24.7904 3.5463 24.7904H0.675486C0.337743 24.7904 0 24.7228 0 24.25C0.0484625 23.9246 0.189104 23.6198 0.405292 23.3718L8.64623 12.3952L0.405292 1.41852Z" fill="#F78C01"/>
</svg>
