<svg width="68" height="40" viewBox="0 0 68 40" fill="none" xmlns="http://www.w3.org/2000/svg">
<path d="M2.72021 31.5801C4.20868 32.8495 5.87055 33.9026 7.65526 34.7033C9.68564 35.6121 11.362 35.9655 12.5614 36.2108C14.8953 36.6868 16.6222 36.7301 19.2306 36.7878C21.4199 36.8383 23.6093 36.7734 25.7986 36.6075C27.6628 36.4632 29.8593 36.2036 31.8391 35.9655C32.634 35.8718 33.1253 35.8068 33.5227 35.7636C37.6774 35.2731 40.9289 34.9918 42.0705 34.898C43.3856 34.7898 44.8668 34.6672 46.861 34.5518C48.7469 34.4436 50.3727 34.3859 51.666 34.3498C52.9666 34.3354 54.3395 34.3643 55.7701 34.4364C57.1791 34.5085 58.5231 34.6167 59.7948 34.7465C60.5896 34.8403 61.4494 34.9701 62.3598 35.1649C63.1619 35.3308 63.9133 35.5255 64.5997 35.7275L67.5261 36.9176C66.6229 36.7373 65.6836 36.5714 64.7081 36.4199C64.0506 36.319 63.4075 36.2324 62.7789 36.1603C62.0491 36.0881 60.9942 35.9944 59.7225 35.9583C58.2268 35.915 56.9407 35.9511 54.1805 36.1242C52.3958 36.2396 50.6833 36.3478 48.205 36.5786C46.6226 36.7229 43.9853 36.9176 40.6182 37.4297C38.7684 37.7111 36.8898 37.9851 34.9823 38.2376C33.5299 38.4323 32.092 38.6199 30.6686 38.793C29.2813 38.9949 27.7784 39.1608 26.1671 39.2474C25.1049 39.3051 24.0934 39.3267 23.1324 39.3195C21.9691 39.3412 20.9719 39.3267 20.1916 39.2979C19.3679 39.269 18.573 39.2185 17.8071 39.1536C17.0196 39.0815 16.1814 38.9805 15.2999 38.8435C14.3461 38.692 13.4574 38.5117 12.6264 38.3169C11.8461 38.0933 11.0802 37.8265 10.3287 37.5235C9.62061 37.235 8.97031 36.9321 8.38504 36.6363C7.45294 36.1098 6.72316 35.7491 5.83442 35.0495C5.40812 34.6311 4.72892 34.1623 4.28093 33.6502C3.73902 32.9866 3.21155 32.3014 2.72021 31.5801Z" fill="#F08720"/>
<path d="M25.0978 13.1148C24.7004 12.2132 24.0356 11.4631 23.1975 10.9509C21.5284 9.96999 19.6931 9.32804 17.7783 9.04674C16.9835 8.95297 16.1092 8.88084 15.1771 8.8592C14.2017 8.83035 13.2262 8.8592 12.258 8.93133C9.14379 9.14772 6.18132 10.3811 3.83302 12.444C1.54252 14.4997 0.169667 17.3704 0.0107055 20.4359C-0.076001 22.0877 0.386434 23.3355 0.588749 23.9342C0.913898 24.9079 1.36911 25.8239 1.94715 26.6751C2.60467 27.4973 3.34168 28.2547 4.15094 28.9327C5.11194 29.7261 6.15964 30.4114 7.2796 30.9667C10.2854 32.4454 13.3057 32.5319 14.7942 32.4815C16.7234 32.5175 18.6454 32.2146 20.4662 31.5798C21.0515 31.3707 21.6801 31.1254 22.3304 30.8225C22.9229 30.5484 23.472 30.2671 23.9706 29.993L22.4894 26.9636L20.0688 27.6488C18.4286 27.9229 16.7595 27.9229 15.1193 27.6488C13.7681 27.2377 12.5326 26.5164 11.5065 25.5499C10.5455 24.641 9.9964 23.3788 9.98917 22.0588L13.5152 22.0011C14.917 21.9218 16.3115 21.7414 17.6916 21.4385C18.7032 21.2221 19.6931 20.948 20.6685 20.6162C21.4706 20.3998 22.222 20.0464 22.9012 19.5704C23.3203 19.2818 23.9923 18.7986 24.5775 17.9114C25.0327 17.2117 25.3362 16.4255 25.4591 15.6033C25.5602 14.7666 25.4374 13.901 25.0978 13.1148ZM18.0384 16.9016C17.0991 18.2215 15.5167 18.3586 15.2566 18.3802L9.88802 18.3658C9.85189 17.9691 9.7146 15.9783 11.1669 14.2761C11.3476 14.0597 12.5253 12.7253 14.4907 12.4224C15.0832 12.3286 16.1237 12.1771 17.1497 12.7686C17.4026 12.9201 18.4069 13.4971 18.6309 14.6656C18.8477 15.7764 18.2263 16.6419 18.0384 16.9016Z" fill="#F58220"/>
<path d="M8.40674 0.109707C9.10762 2.64144 10.6611 4.8558 12.8071 6.37051C13.7536 6.9259 14.758 7.36589 15.7985 7.68325C17.7421 8.28193 19.7436 8.23865 21.4705 8.24586H21.6295C20.3722 7.22884 19.0572 6.28395 17.6916 5.41119C16.1381 4.42302 14.5195 3.53584 12.8432 2.75684C13.6958 2.98044 14.3967 3.20404 14.9242 3.38436C15.5167 3.5719 16.1019 3.80271 16.6655 4.05516C17.2002 4.30762 17.7205 4.58892 18.219 4.89907C18.7031 5.18759 19.0572 5.43283 19.9965 6.0892C20.5601 6.48591 21.2754 6.99082 22.0991 7.58227C21.6367 6.37051 21.0153 5.23087 20.2422 4.19221C19.4979 3.18962 18.9632 2.46111 17.9661 1.8408C17.0629 1.2782 15.6323 0.708378 15.6323 0.708378C13.284 0.0520037 10.8345 -0.149958 8.40674 0.109707Z" fill="#68BD45"/>
<path d="M22.6265 20.8614C23.1901 21.8639 23.7031 22.9026 24.1583 23.9629C24.5051 24.7707 24.7652 25.5065 25.2927 26.9707C25.784 28.3483 26.0369 29.0408 26.2826 29.8775C26.5572 30.8152 26.8173 31.861 27.034 33.0007C28.7176 33.0944 30.4084 32.9213 32.0413 32.4958C32.7567 32.2938 33.4431 32.0125 34.0862 31.6519C34.6931 31.2407 35.235 30.7358 35.6758 30.1444C35.8926 29.827 36.2033 29.3582 36.5429 28.7667C37.0775 27.8507 37.4099 27.1294 37.5544 26.8192C39.2597 23.1551 37.9085 26.3071 39.9172 21.8207C41.3551 18.6037 42.5979 15.7546 43.4938 13.6845C43.7395 13.1219 44.0213 12.5377 44.3464 11.9318C44.5271 11.5928 44.7077 11.2754 44.8956 10.9652C45.2207 10.4964 45.6326 10.0925 46.1022 9.77512L46.926 9.21973H39.2091C38.2264 9.40005 37.3521 9.96266 36.7741 10.7849C35.9576 12.7973 35.1411 14.8746 34.3391 17.0097C33.3853 19.5702 32.5038 22.0659 31.6873 24.5111C30.7335 21.3085 29.2667 18.2791 27.352 15.5454C27.1786 16.988 26.4849 18.3152 25.4011 19.2745C25.0109 19.6279 24.5846 19.9453 24.1366 20.2194C23.6669 20.5007 23.1612 20.7099 22.6265 20.8614Z" fill="#68BD45"/>
<path d="M65.6979 30.3969C65.5967 29.8632 65.5317 29.315 65.5172 28.7668C65.4594 27.4252 65.4594 26.3577 65.4522 25.6508C65.4378 22.9676 65.4161 22.9821 65.4378 22.2031C65.4522 21.8929 65.4811 21.0706 65.4883 20.2556C65.4883 20.1618 65.4883 19.8589 65.4956 19.4261C65.5028 18.9428 65.5028 18.7769 65.5028 18.611C65.5172 18.0484 65.5028 17.493 65.4522 16.9377C65.38 15.9567 65.1054 14.9974 64.6502 14.1246C64.3684 13.5187 64.0216 12.9489 63.6097 12.4224C62.8077 11.4198 61.9334 10.886 61.3192 10.5182C60.6328 10.107 59.8958 9.78245 59.1299 9.54443C58.1833 9.23427 57.2007 9.03953 56.2035 8.96018C55.7194 8.90969 55.2498 8.88805 54.8524 8.87363C54.4911 8.8592 53.8986 8.83035 53.1543 8.83756C52.3379 8.84478 51.7598 8.85199 50.9795 8.94576C50.3436 9.0251 49.8306 9.09002 49.1586 9.32804C48.6023 9.52279 48.0676 9.78967 47.5762 10.1287C46.7453 10.7346 46.0733 11.528 45.6109 12.444C45.3797 12.8696 45.1485 13.3168 44.9172 13.7928C44.6571 14.341 44.4187 14.8675 44.2091 15.3725C45.3941 14.8387 46.6297 14.4203 47.8942 14.1246C48.9924 13.8722 50.4375 13.5476 52.3162 13.6846C53.6601 13.7784 55.4015 13.9299 56.507 15.1705C56.6154 15.2931 57.3957 16.1875 57.1212 16.7068C56.9261 17.0675 56.2975 17.0747 55.7628 17.0891C54.4405 17.1108 53.1254 17.1829 51.8104 17.2767C50.4014 17.3704 49.0069 17.6229 47.6557 18.0268C46.5719 18.3297 45.5314 18.7481 44.5343 19.2746C43.4288 19.8372 42.4822 20.6739 41.803 21.7126C40.5169 23.6529 40.6542 25.6653 40.6831 26.0043C40.8204 27.3819 41.355 28.6875 42.2366 29.755C43.8117 31.6736 45.9071 32.1424 46.5358 32.2651C48.5661 32.4959 50.6182 32.467 52.6413 32.1713C54.585 31.9765 56.3769 31.0244 57.627 29.517C58.3784 30.6927 59.5779 31.5221 60.9507 31.8107C61.7311 31.8828 62.5837 31.9333 63.5013 31.9333C64.419 31.9333 65.2933 31.8828 66.0808 31.8107C65.9219 31.3418 65.7918 30.873 65.6979 30.3969ZM57.3452 22.7945C57.2657 23.5302 57.2151 23.963 56.9839 24.5112C56.7599 25.045 56.4347 25.521 56.0229 25.9321C55.5677 26.3721 55.0258 26.7111 54.426 26.9347C53.689 27.216 52.8942 27.3387 52.1066 27.2954C51.2829 27.2521 50.4592 27.2088 49.715 26.5885C49.5488 26.4515 48.7612 25.7735 48.6601 24.641C48.5734 23.6961 49.0213 22.9821 49.1731 22.744C50.1702 21.2005 52.2223 20.9047 53.9564 20.6595C55.098 20.5008 56.2541 20.4792 57.403 20.5946C57.4391 21.3303 57.4246 22.066 57.3452 22.7945Z" fill="#68BD45"/>
</svg>
