<svg width="134" height="33" viewBox="0 0 134 33" fill="none" xmlns="http://www.w3.org/2000/svg">
<path d="M1.53442 25.2143L4.24511 11.0982H9.61534C10.6382 11.0471 11.61 11.3028 12.4795 11.8143C13.1443 12.2746 13.4001 13.0417 13.1955 14.2181C13.0421 15.1387 12.5306 15.9059 11.7634 16.4685C10.9963 17.031 10.0756 17.4402 9.15503 17.5425L9.10389 17.6959C9.97336 17.7471 10.7917 18.1051 11.4566 18.6165C12.1214 19.128 12.326 19.9463 12.1214 21.0715C11.9169 22.3501 11.1497 23.4753 10.0245 24.1402C8.89931 24.8051 7.67183 25.1631 6.34206 25.1631H1.53442V25.2143ZM6.18862 17.1333C6.70007 17.1333 7.21152 17.1333 7.72297 17.0822C8.08099 17.031 8.439 16.8776 8.69473 16.6219C9.41076 16.1104 9.87107 15.2921 10.0245 14.4226C10.2291 13.8601 10.1268 13.2463 9.76878 12.7349C9.41076 12.3257 8.84817 12.07 8.28557 12.1211C7.9787 12.1211 7.62068 12.1723 7.21152 12.1723L6.18862 17.1333ZM4.91 23.9868H5.9329C6.59778 23.9868 7.26267 23.731 7.77412 23.2707C8.38786 22.8104 8.79702 22.0944 8.95045 21.3272C9.15504 20.202 9.0016 19.3837 8.5413 18.9234C7.82526 18.412 6.90465 18.2585 6.03519 18.3608L4.91 23.9868Z" fill="#673774"/>
<path d="M28.8459 21.8386C27.9253 23.0149 26.7489 23.9355 25.4192 24.6004C23.9871 25.2653 22.4528 25.6233 20.9184 25.6233C19.5886 25.6745 18.2589 25.3676 17.0314 24.7539C16.0085 24.1913 15.2413 23.2707 14.8322 22.1966C14.423 20.918 14.3718 19.5371 14.6787 18.2585C14.8833 17.2355 15.2925 16.2126 15.8039 15.3432C16.3665 14.4226 17.0314 13.6043 17.8497 12.9394C18.7192 12.2745 19.7421 11.7119 20.765 11.3539C21.8902 10.9959 23.1177 10.7913 24.294 10.7913C25.7772 10.689 27.3115 11.0981 28.539 11.9676C29.5108 12.6325 30.1757 13.6554 30.4314 14.7806C30.6871 15.9058 30.7383 17.0821 30.4825 18.2585C30.3291 19.4859 29.7154 20.7646 28.8459 21.8386ZM21.2764 12.6836C20.407 13.2974 19.7421 14.0646 19.2818 14.9852C18.668 16.2126 18.2589 17.4913 18.0031 18.7699C17.8497 19.6394 17.7986 20.56 17.952 21.4806C18.0543 22.2478 18.4123 22.9638 18.9749 23.5264C19.5886 24.089 20.4581 24.3447 21.2764 24.3447C22.2482 24.3447 23.2199 24.0378 24.0383 23.4752C24.9077 22.8104 25.5726 21.9409 26.0841 21.0203C26.5955 19.9974 27.0047 18.8722 27.2093 17.747C27.3627 16.8264 27.4138 15.9058 27.2604 15.0363C27.1581 14.218 26.8001 13.4508 26.2375 12.8882C25.6238 12.2745 24.8054 11.9676 23.9871 12.0188C23.0154 11.9165 22.0947 12.1722 21.2764 12.6836Z" fill="#673774"/>
<path d="M34.1649 11.0474H38.5634C40.3023 11.0474 41.3764 11.2008 41.8878 11.4565C42.9107 12.0191 43.4222 13.2466 43.1153 14.3718C42.9619 15.3435 42.5015 16.213 41.7855 16.8779C41.0695 17.5428 40.1489 18.0031 39.1771 18.2077C39.5351 19.1283 40.3535 21.0718 41.7344 24.0382L42.297 25.3168C41.2741 25.2657 40.6603 25.2145 40.4557 25.2145C40.2512 25.2145 39.6374 25.2145 38.5634 25.3168L36.9267 20.9695C36.8244 20.7649 36.7733 20.4581 36.5176 19.9466C36.2619 19.4352 36.1596 19.0771 36.0061 18.668H35.8015L34.5229 25.3168C33.6535 25.2657 33.142 25.2145 32.9886 25.2145C32.8351 25.2145 32.3237 25.2145 31.4031 25.3168L34.1649 11.0474ZM36.0061 17.7474C38.2054 17.9519 39.4328 17.0313 39.842 14.8321C39.8932 14.4229 39.8932 14.1161 39.9443 13.8092C39.9443 13.042 39.6886 12.5817 39.2283 12.4794C38.5122 12.326 37.7962 12.2748 37.0802 12.2748L36.0061 17.7474Z" fill="#673774"/>
<path d="M96.4595 11.0474C97.3289 11.0985 97.8915 11.0985 97.9938 11.1497C98.1472 11.2008 98.7098 11.0985 99.5793 11.0474L96.8175 25.2657L95.232 25.1634C95.0785 25.1634 94.5671 25.1634 93.6465 25.2657L96.4595 11.0474Z" fill="#673774"/>
<path d="M84.3894 25.317C83.5711 25.2658 83.0596 25.2147 82.855 25.2147C82.7016 25.2147 82.1901 25.2147 81.2695 25.317L84.0825 11.0986H89.197C92.1123 11.0986 93.3909 12.275 92.9817 14.5765C92.8283 15.5994 92.368 16.5712 91.652 17.3383C90.9871 18.0032 90.1176 18.4635 89.197 18.7192C88.0207 18.975 86.8443 19.0773 85.668 19.0773L84.3894 25.317ZM85.8726 17.9009C86.3329 17.9009 86.8443 17.8498 87.3046 17.7475C88.5833 17.4406 89.3504 16.4689 89.7085 14.9345C89.8619 14.2696 89.8108 13.5536 89.555 12.9399C89.2993 12.4795 88.839 12.1727 88.3275 12.2238H87.0489L85.8726 17.9009Z" fill="#673774"/>
<path d="M104.285 23.7315C105.666 23.7315 107.2 23.6292 109.093 23.4757C108.939 23.7315 108.837 24.0383 108.786 24.3452C108.786 24.4475 108.786 24.5498 108.734 24.6521V24.9589C108.734 25.0612 108.734 25.1635 108.734 25.2147H100.858L103.569 11.0986C104.438 11.1498 104.95 11.1498 105.103 11.2009C105.257 11.2521 105.819 11.1498 106.689 11.0986L104.285 23.7315Z" fill="#673774"/>
<path d="M28.2319 29.2041L28.6923 32.0171H28.0274L27.9762 31.5056H26.9533L26.6464 32.0171H25.9304L27.5671 29.2041H28.2319ZM27.8739 31.0453L27.7205 29.9713L27.1068 31.0453H27.8739Z" fill="#673774"/>
<path d="M30.9427 29.2041L30.3289 32.0682H29.6641L30.2778 29.2041H30.9427Z" fill="#673774"/>
<path d="M32.2726 29.2041H33.6535C33.8581 29.2041 34.0626 29.2041 34.2161 29.3064C34.4206 29.4087 34.5229 29.6644 34.5229 29.9201C34.5229 30.1759 34.4206 30.3804 34.2672 30.5339C34.1649 30.6362 34.0115 30.6873 33.9092 30.7385C34.0626 30.7896 34.2161 30.943 34.1649 31.0965C34.1649 31.1988 34.1649 31.3522 34.1138 31.4545C34.1138 31.5568 34.0626 31.6591 34.0626 31.8125C34.0626 31.8636 34.0626 31.9659 34.1138 32.0171H33.3977C33.3977 31.9659 33.3977 31.8636 33.3977 31.8125C33.3977 31.7102 33.3977 31.6079 33.4489 31.5056C33.4489 31.4033 33.5 31.3522 33.5 31.2499C33.5 31.0965 33.3977 30.9942 33.142 30.9942H32.6306L32.426 32.0171H31.71L32.2726 29.2041ZM32.6817 30.4827H33.2955C33.4489 30.4827 33.5512 30.4316 33.7046 30.3804C33.7558 30.2781 33.8069 30.227 33.8069 30.1247C33.8069 29.9201 33.6535 29.8178 33.3977 29.8178H32.8352L32.6817 30.4827Z" fill="#673774"/>
<path d="M37.2336 29.2041C37.4381 29.2041 37.6427 29.2552 37.7961 29.3575C38.0007 29.511 38.103 29.7156 38.103 29.9713C38.103 30.1247 38.0519 30.2781 38.0007 30.4316C37.9496 30.585 37.7961 30.7385 37.6939 30.8407C37.5916 30.943 37.4381 30.9942 37.2847 31.0453C37.1313 31.0965 36.9778 31.0965 36.8244 31.0965H36.2107L36.0061 32.0682H35.29L35.8526 29.2552L37.2336 29.2041ZM36.3129 30.5339H36.8244C36.9267 30.5339 37.029 30.5339 37.1313 30.4827C37.3358 30.4316 37.4381 30.1759 37.3358 29.9713C37.3358 29.9201 37.2847 29.869 37.2336 29.8178C37.1313 29.7667 37.029 29.7667 36.9778 29.7667H36.4152L36.3129 30.5339Z" fill="#673774"/>
<path d="M39.1771 31.7612C39.0237 31.5055 38.9214 31.2498 38.9214 30.9429C38.9214 30.6872 38.9725 30.4826 39.0237 30.278C39.126 30.0734 39.2283 29.8177 39.3817 29.6643C39.6886 29.3063 40.1489 29.1528 40.6092 29.1528C40.8138 29.1528 40.9672 29.1528 41.1206 29.2551C41.2741 29.3063 41.3763 29.4086 41.4786 29.5108C41.5809 29.6131 41.6321 29.7154 41.6832 29.8689C41.7344 30.0223 41.7855 30.1757 41.7855 30.3292C41.7855 30.5849 41.7344 30.7895 41.6832 30.9941C41.6321 31.2498 41.4786 31.4544 41.3252 31.6078C41.2229 31.7101 41.1206 31.8124 40.9672 31.9147C40.8649 31.9658 40.7115 32.017 40.558 32.0681C40.4046 32.1192 40.2512 32.1192 40.0977 32.1192C39.7909 32.1704 39.4328 32.017 39.1771 31.7612ZM40.9672 31.1475C41.0695 30.9429 41.1718 30.6872 41.1718 30.4315C41.1718 29.9712 40.9672 29.7154 40.558 29.7154C40.2512 29.6643 39.9443 29.8689 39.842 30.1246C39.7397 30.3292 39.6374 30.5849 39.6374 30.8406C39.6374 31.1475 39.6886 31.3521 39.842 31.4032C39.9443 31.5055 40.0977 31.5055 40.2512 31.5055C40.5069 31.5566 40.8138 31.4032 40.9672 31.1475Z" fill="#673774"/>
<path d="M43.3712 29.2041H44.7521C44.9055 29.2041 45.1101 29.2552 45.2636 29.3064C45.4681 29.4087 45.5704 29.6644 45.5704 29.9201C45.5704 30.1759 45.4681 30.3804 45.3147 30.5339C45.2124 30.6362 45.059 30.6873 44.9567 30.7385C45.1101 30.7896 45.2636 30.943 45.2124 31.0965C45.2124 31.1988 45.2124 31.3522 45.1613 31.4545C45.1613 31.5568 45.1101 31.6591 45.1101 31.8125C45.1101 31.8636 45.1101 31.9659 45.1613 32.0171H44.4964C44.4964 31.9659 44.4964 31.8636 44.4964 31.8125C44.4964 31.7102 44.4964 31.6079 44.4964 31.5056C44.4964 31.4033 44.5475 31.3522 44.5475 31.2499C44.5475 31.0965 44.3941 30.9942 44.1895 30.9942H43.6781L43.4735 32.0171H42.8086L43.3712 29.2041ZM43.7804 30.4827H44.3941C44.5475 30.4827 44.6498 30.4316 44.8033 30.3804C44.8544 30.2781 44.9055 30.227 44.9055 30.1247C44.9055 29.9201 44.7521 29.8178 44.4964 29.8178H43.9338L43.7804 30.4827Z" fill="#673774"/>
<path d="M46.6443 29.7667L46.7466 29.2041H49.0993L48.9458 29.7667H48.1275L47.6672 32.0682H47.0023L47.4626 29.7667H46.6443Z" fill="#673774"/>
<path d="M6.34204 29.7661V31.505H25.0611L25.9817 29.7661H6.34204Z" fill="#673774"/>
<path d="M19.6397 31.5568V29.8179C13.1954 29.8179 6.80229 29.8179 0.358015 29.8179C0.255725 30.3805 0.10229 30.9942 0 31.5568H19.6397Z" fill="#673774"/>
<path d="M134 5.83053V5.06336L116.253 3.98931L113.644 0.51145L111.701 0L112.366 4.24504H111.343L111.189 5.6771L134 5.83053Z" fill="#673774"/>
<path d="M46.7977 25.3167C47.258 23.1686 47.6671 21.0205 48.1274 18.8724L45.1099 10.9961C45.7747 11.0472 46.4908 11.0984 47.258 11.0472C47.5648 11.0472 47.8717 10.9961 48.1786 10.9961C48.8946 12.8373 49.6106 14.6785 50.3267 16.5198L54.6228 10.9961C55.1343 11.0472 55.6969 11.0984 56.3106 11.0472C56.6175 11.0472 56.9244 10.9961 57.1801 10.9961C55.1343 13.6045 53.1396 16.1617 51.0938 18.7701C50.6847 20.9694 50.2244 23.1175 49.8152 25.3167C49.3549 25.2656 48.8946 25.2656 48.3831 25.2656C47.8206 25.2144 47.258 25.2656 46.7977 25.3167Z" fill="#673774"/>
<path d="M63.1131 11.7124C63.6757 8.746 65.9773 5.67729 72.4727 5.67729H72.5238H109.093V4.44981C95.9482 4.29638 73.1376 4.0918 70.478 4.0918C63.2666 4.0918 60.3513 7.6208 59.6353 10.1269C58.9192 12.633 59.4307 16.162 67.0002 19.1284C72.4727 21.2254 72.5238 23.6803 71.7055 25.9819C70.7337 28.6926 66.233 29.8689 63.7269 29.8689H50.1223L49.6108 31.5567H63.7269C75.4391 31.0964 76.7177 25.3681 76.0017 22.9643C74.5696 18.0544 62.0902 17.4407 63.1131 11.7124Z" fill="#673774"/>
</svg>
