<svg width="16" height="16" viewBox="0 0 16 16" fill="none" xmlns="http://www.w3.org/2000/svg">
<path fill-rule="evenodd" clip-rule="evenodd" d="M1.12068 6.76341L9.23659 14.8793C9.59187 15.2346 10.0136 15.5165 10.4779 15.7087C10.9421 15.901 11.4396 16 11.942 16C12.4445 16 12.942 15.901 13.4062 15.7087C13.8704 15.5165 14.2922 15.2346 14.6475 14.8793L16 13.5268L11.9425 9.4684L10.5891 10.8209C10.2303 11.1795 9.74385 11.381 9.23659 11.381C8.72933 11.381 8.24283 11.1795 7.88409 10.8209L5.17911 8.11591C5.00139 7.93826 4.86041 7.72734 4.76423 7.49519C4.66804 7.26304 4.61853 7.01422 4.61853 6.76294C4.61853 6.51165 4.66804 6.26283 4.76423 6.03068C4.86041 5.79854 5.00139 5.58761 5.17911 5.40997L6.5316 4.05747L2.47317 0L1.12068 1.35249C0.765382 1.70777 0.483543 2.12956 0.291256 2.59376C0.0989694 3.05796 0 3.5555 0 4.05795C0 4.56041 0.0989694 5.05794 0.291256 5.52215C0.483543 5.98635 0.765382 6.40813 1.12068 6.76341Z" fill="white"/>
</svg>
