<svg width="44" height="54" viewBox="0 0 44 54" fill="none" xmlns="http://www.w3.org/2000/svg">
<path d="M14.1 6.7L11.7 2.5L10.2 3.4L12.6 7.6C13.1 7.2 13.6 6.9 14.1 6.7ZM22.8 4.8V0H21V4.8C21.3 4.8 21.6 4.8 21.9 4.8C22.2 4.8 22.5 4.8 22.8 4.8ZM41.3 11.7L40.4 10.2L36.3 12.6C36.6 13.1 36.9 13.6 37.2 14.1L41.3 11.7ZM33.6 3.4L32.1 2.5L29.7 6.6C30.2 6.9 30.7 7.2 31.2 7.5L33.6 3.4ZM7.5 12.6L3.3 10.2L2.4 11.7L6.6 14.1C6.9 13.6 7.2 13.1 7.5 12.6ZM4.8 22C4.8 21.7 4.8 21.4 4.8 21.1H0V22.9H4.8C4.8 22.5 4.8 22.2 4.8 22ZM39.1 21C39.1 21.3 39.1 21.6 39.1 21.9C39.1 22.2 39.1 22.4 39.1 22.7H43.8V20.9H39.1V21ZM38.1 43.7C38 43.4 37.8 43.2 37.6 43.1C37.4 43 37.1 43 36.8 43.1C36.8 43.1 36.4 43.3 35.7 43.6V21.9C35.7 14.2 29.5 8 21.8 8C14.1 8 7.9 14.2 7.9 21.9V43.7C7.2 43.4 6.9 43.2 6.8 43.2C6.6 43 6.3 43 6 43.1C5.7 43.2 5.5 43.4 5.5 43.7L3.9 49.7C3.8 50.1 4 50.5 4.3 50.7C4.5 50.8 9.8 53.8 21.8 53.8C33.8 53.8 39 50.8 39.2 50.7C39.5 50.5 39.7 50.1 39.6 49.7L38.1 43.7ZM9.8 21.9C9.8 15.2 15.2 9.8 21.9 9.8C28.6 9.8 34 15.2 34 21.9V39.2C32.7 39.7 28.8 40.9 21.9 40.9C15 40.9 11.1 39.7 9.8 39.2V21.9ZM9.8 41.1C11.6 41.7 15.6 42.7 21.9 42.7C28.3 42.7 32.2 41.7 34 41.1V44.3C31.5 45.1 27.3 46.1 21.6 46.1C16 46.1 12.1 45.2 9.8 44.4V41.1ZM22 52C12.7 52 7.6 50.1 6 49.4L7.1 45.2C9 46.1 13.7 47.8 21.6 47.8C29.7 47.8 34.7 46 36.7 45.2L37.8 49.5C36.3 50.2 31.2 52 22 52ZM22.9 15.9H20.9V31.8H22.9V15.9ZM22.9 33.9H20.9V35.8H22.9V33.9Z" fill="white"/>
</svg>
