<svg width="44" height="54" viewBox="0 0 44 54" fill="none" xmlns="http://www.w3.org/2000/svg">
<path d="M42.9 5H32.9C32.8 5 32.8 4.9 32.8 4.9V0.9C32.8 0.4 32.4 0 31.9 0H11.9C11.4 0 11 0.4 11 0.9V4.9C11 5 10.9 5 10.9 5H0.9C0.4 5 0 5.4 0 5.9V30.9C0 46.4 20.7 53.4 21.6 53.7C21.7 53.7 21.8 53.7 21.9 53.7C22 53.7 22.1 53.7 22.2 53.7C23.1 53.4 43.8 46.3 43.8 30.9V5.9C43.8 5.4 43.4 5 42.9 5ZM42 30.9C42 44.2 24.3 51.1 21.9 52C19.5 51.1 1.8 44.2 1.8 30.9V6.8H10.9C11.9 6.8 12.8 6 12.8 4.9V1.7H31.1V4.9C31.1 5.9 31.9 6.8 33 6.8H42.1V30.9H42ZM4 9.9V30.9C4 41.5 17.4 47.8 21.5 49.4C21.6 49.4 21.7 49.5 21.8 49.5C21.9 49.5 22 49.5 22.1 49.4C26.2 47.7 39.7 41.4 39.7 30.9V9.9C39.7 9.4 39.3 9 38.8 9H4.9C4.4 9 4 9.4 4 9.9ZM5.8 10.8H38.1V30.9C38.1 40.1 26.2 45.9 22 47.7C17.7 45.9 5.8 40.2 5.8 30.9V10.8ZM10.6 33.9L13.1 32.5L12.5 34.6L14.2 35.1L15.2 31.4L17.2 30.3L16 34.7L16.9 34.9L17.7 35.7L21 32.4V34.7L18.3 37.4L19.5 38.6L21 37.1V39.9H22.8V37L24.3 38.5L25.5 37.3L22.8 34.6V32.3L26.1 35.6L26.8 34.9L27.8 34.6L26.6 30.1L28.6 31.3L29.6 35L31.3 34.5L30.7 32.4L33.2 33.8L34.1 32.3L31.5 30.9L33.6 30.3L33.1 28.6L29.4 29.6L27.4 28.4L31.9 27.2L31.6 26.2L31.9 25.2L27.4 24L29.4 22.8L33.1 23.8L33.6 22.1L31.5 21.9L34 20.5L33.2 18.9L30.7 20.3L31.3 18.2L29.6 17.7L28.6 21.4L26.6 22.6L27.8 18.1L26.8 17.8L26.1 17.1L22.9 20.3V18L25.6 15.3L24.4 14.1L22.9 15.6V12.9H21.1V15.8L19.6 14.3L18.4 15.5L21.1 18.2V20.5L17.9 17.3L17.2 18L16.2 18.3L17.4 22.7L15.4 21.6L14.4 17.9L12.7 18.4L13.3 20.5L10.6 18.9L9.7 20.4L12.2 21.8L10.1 22.4L10.6 24.1L14.3 23.1L16.3 24.2L11.9 25.4L12.2 26.4L11.9 27.4L16.3 28.6L14.3 29.7L10.6 28.7L10.1 30.4L12.2 31L9.7 32.4L10.6 33.9ZM28.7 26.4L25.3 27.3L23.7 26.4L25.3 25.5L28.7 26.4ZM22.8 23L25.3 20.5L24.4 23.9L22.8 24.9V23ZM22.8 27.9L24.4 28.8L25.3 32.2L22.8 29.7V27.9ZM21 29.7L18.5 32.2L19.4 28.8L21 27.9V29.7ZM21 23V24.9L19.4 24L18.5 20.5L21 23ZM15.1 26.4L18.6 25.5L20.2 26.4L18.6 27.3L15.1 26.4Z" fill="white"/>
</svg>
