<svg width="54" height="54" viewBox="0 0 54 54" fill="none" xmlns="http://www.w3.org/2000/svg">
<path d="M26.9 0C12.1 0 0 12.1 0 26.9C0 41.7 12.1 53.8 26.9 53.8C41.7 53.8 53.8 41.7 53.8 26.9C53.8 12.1 41.7 0 26.9 0ZM26.9 52C13 52 1.8 40.7 1.8 26.9C1.8 13.1 13 1.8 26.9 1.8C40.8 1.8 52 13 52 26.9C52 40.8 40.8 52 26.9 52ZM33.6 33C31.8 27.1 28.2 18.8 27.7 17.5C27.6 17.2 27.2 17 26.9 17C26.5 17 26.2 17.2 26.1 17.5C25.6 18.7 22 27.1 20.2 33H4.7L5.1 34.1C8.1 43.6 16.9 49.8 27 49.8C37.1 49.8 45.9 43.6 48.9 34.1L49.3 33H33.6ZM26.9 20.1C29.1 25.5 32.9 35.3 32.9 37.9C32.9 41.3 30.2 44 26.8 44C23.4 44 20.7 41.3 20.7 37.9C20.8 35.3 24.6 25.5 26.9 20.1ZM27 48C18.1 48 10.2 42.8 7.1 34.7H19.6C19.2 36 19 37.2 19 37.9C19 42.2 22.5 45.7 26.8 45.7C31.1 45.7 34.6 42.2 34.6 37.9C34.6 37.2 34.4 36 34 34.7H46.9C43.8 42.9 35.9 48 27 48ZM11.9 17.6L14.5 19.5L15.5 18.1L13 16.3C13.8 15.3 14.8 14.4 15.8 13.7L16.8 15L18.2 14L17.3 12.7C18.4 12 19.5 11.4 20.7 11L21.2 12.5L22.9 12L22.4 10.5C23.6 10.2 24.9 10 26.1 9.9V12.9H27.9V9.7C29.2 9.7 30.5 9.9 31.7 10.2L31 11.9L32.7 12.4L33.2 10.7C34.4 11.1 35.6 11.7 36.7 12.3L35.6 13.9L37 14.9L38.1 13.4C39.1 14.2 40.1 15.1 41 16.1L38.2 18.1L39.2 19.5L42 17.4C42.1 17.5 42.1 17.6 42.2 17.7L43.6 16.7C39.8 11.2 33.6 7.9 26.9 7.9C20.2 7.9 14 11.2 10.2 16.7L11.9 17.6C11.9 17.7 11.9 17.6 11.9 17.6ZM26.9 41.8C29 41.8 30.8 40.1 30.8 37.9C30.8 35.8 29.1 34 26.9 34C24.7 34 23 35.7 23 37.9C23 40 24.8 41.8 26.9 41.8ZM26.9 35.8C28.1 35.8 29 36.8 29 37.9C29 39.1 28 40 26.9 40C25.8 40 24.8 39 24.8 37.9C24.8 36.7 25.7 35.8 26.9 35.8Z" fill="white"/>
</svg>
