<svg width="53" height="53" viewBox="0 0 53 53" fill="none" xmlns="http://www.w3.org/2000/svg">
<path d="M26.4 0C11.9 0 0 11.9 0 26.4C0 40.9 11.9 52.8 26.4 52.8C40.9 52.8 52.8 40.9 52.8 26.4C52.8 11.9 40.9 0 26.4 0ZM26.4 51C12.8 51 1.8 40 1.8 26.4C1.8 12.8 12.8 1.8 26.4 1.8C40 1.8 51 12.8 51 26.4C51 40 40 51 26.4 51ZM26.4 4C14.1 4 4 14 4 26.4C4 38.8 14 48.8 26.4 48.8C38.7 48.8 48.8 38.8 48.8 26.4C48.8 14 38.7 4 26.4 4ZM5.8 26.4C5.8 15 15.1 5.8 26.4 5.8C31.8 5.8 36.7 7.9 40.3 11.3L11.2 40.3C7.9 36.7 5.8 31.8 5.8 26.4ZM26.4 47C21 47 16.1 44.9 12.5 41.5L41.6 12.4C45 16.1 47.1 21 47.1 26.3C47 37.8 37.8 47 26.4 47ZM44.9 31.8V30H41.8C41.8 29.9 41.7 29.8 41.7 29.7L44.4 28.1L43.5 26.6L40.8 28.2C40.7 28.1 40.7 28 40.6 28L42.2 25.3L40.7 24.4L39.1 27.1C39 27.1 38.9 27 38.8 27V23.9H37V27C36.9 27 36.8 27.1 36.7 27.1L35.1 24.4L33.6 25.3L35.2 28C35.1 28.1 35 28.1 35 28.2L32.3 26.6L31.4 28.1L34.1 29.7C34.1 29.8 34 29.9 34 30H30.9V31.8H34C34 31.9 34.1 32 34.1 32.1L31.4 33.7L32.3 35.2L35 33.6C35.1 33.7 35.1 33.8 35.2 33.8L33.6 36.5L35.1 37.4L36.7 34.7C36.8 34.7 36.9 34.8 37 34.8V37.9H38.8V34.8C38.9 34.8 39 34.7 39.1 34.7L40.7 37.4L42.2 36.5L40.6 33.8C40.7 33.7 40.8 33.7 40.8 33.6L43.5 35.2L44.4 33.7L41.7 32.1C41.7 32 41.8 31.9 41.8 31.8H44.9ZM37.9 34.4C36 34.4 34.4 32.8 34.4 30.9C34.4 29 36 27.4 37.9 27.4C39.8 27.4 41.4 29 41.4 30.9C41.4 32.8 39.8 34.4 37.9 34.4ZM16.2 19.6L15 18.4L13.7 19.7V17.9H11.9V19.7L10.6 18.4L9.4 19.6L10.7 20.9H8.9V22.6H10.7L9.4 23.9L10.6 25.1L11.9 23.9V25.7H13.6V23.9L14.9 25.2L16.1 24L14.9 22.7H16.7V20.9H14.9L16.2 19.6ZM14.9 21.9C14.9 23 14 23.9 12.9 23.9C11.8 23.9 10.9 23 10.9 21.9C10.9 20.8 11.8 19.9 12.9 19.9C14 19.9 14.9 20.8 14.9 21.9ZM29.2 38.6L28 37.4L26.7 38.7V36.9H24.9V38.7L23.6 37.4L22.4 38.6L23.7 39.9H21.9V41.6H23.7L22.4 42.9L23.6 44.1L24.9 42.9V44.7H26.6V42.9L27.9 44.2L29.1 43L27.9 41.7H29.7V39.9H27.9L29.2 38.6ZM27.9 40.9C27.9 42 27 42.9 25.9 42.9C24.8 42.9 23.9 42 23.9 40.9C23.9 39.8 24.8 38.9 25.9 38.9C27 38.9 27.9 39.8 27.9 40.9ZM21.9 8.9C21.3 8.9 20.9 9.3 20.9 9.9C20.9 10.5 21.3 10.9 21.9 10.9C22.5 10.9 22.9 10.5 22.9 9.9C22.9 9.3 22.5 8.9 21.9 8.9ZM26.9 13.9C26.3 13.9 25.9 14.3 25.9 14.9C25.9 15.5 26.3 15.9 26.9 15.9C27.5 15.9 27.9 15.5 27.9 14.9C27.9 14.3 27.5 13.9 26.9 13.9ZM29.9 9.9C29.3 9.9 28.9 10.3 28.9 10.9C28.9 11.5 29.3 11.9 29.9 11.9C30.5 11.9 30.9 11.5 30.9 10.9C30.9 10.3 30.5 9.9 29.9 9.9ZM19.9 14.9C19.3 14.9 18.9 15.3 18.9 15.9C18.9 16.5 19.3 16.9 19.9 16.9C20.5 16.9 20.9 16.5 20.9 15.9C20.9 15.3 20.5 14.9 19.9 14.9ZM21.9 20.9C21.3 20.9 20.9 21.3 20.9 21.9C20.9 22.5 21.3 22.9 21.9 22.9C22.5 22.9 22.9 22.5 22.9 21.9C22.9 21.3 22.5 20.9 21.9 20.9ZM33.9 40.9C33.3 40.9 32.9 41.3 32.9 41.9C32.9 42.5 33.3 42.9 33.9 42.9C34.5 42.9 34.9 42.5 34.9 41.9C34.9 41.3 34.5 40.9 33.9 40.9ZM11.9 29.9C11.3 29.9 10.9 30.3 10.9 30.9C10.9 31.5 11.3 31.9 11.9 31.9C12.5 31.9 12.9 31.5 12.9 30.9C12.9 30.3 12.5 29.9 11.9 29.9ZM41.9 21.9C42.5 21.9 42.9 21.5 42.9 20.9C42.9 20.3 42.5 19.9 41.9 19.9C41.3 19.9 40.9 20.3 40.9 20.9C40.9 21.5 41.3 21.9 41.9 21.9Z" fill="white"/>
</svg>
