<svg width="35" height="36" viewBox="0 0 35 36" fill="none" xmlns="http://www.w3.org/2000/svg">
<path d="M15.5643 10.4796C15.55 8.99282 16.7571 7.77175 18.2286 7.76456C19.7286 7.76456 20.9071 8.94972 20.9071 10.4725C20.9214 11.9593 19.7429 13.1804 18.2786 13.2019C16.8 13.2091 15.5857 11.988 15.5643 10.4796Z" fill="#426CFF"/>
<path d="M22.0714 25.9082C22.0357 26.1309 21.9 26.3679 21.7357 26.5475C20.7571 27.5603 19.5786 28.1564 18.1643 28.178C17.5286 28.1923 16.8786 28.2139 16.2643 28.0774C14.65 27.7398 13.7357 26.3607 13.9929 24.7374C14.3 22.7837 14.65 20.8516 14.9857 18.905C15.0857 18.316 15.2071 17.7342 15.2857 17.1453C15.3214 16.937 15.3 16.6999 15.2643 16.4988C15.1929 16.0966 14.9929 15.9242 14.6071 15.8595C14.3929 15.838 14.1857 15.8452 13.9857 15.7949C13.7357 15.7231 13.45 15.6297 13.2571 15.486C12.9071 15.2275 12.9857 14.7103 13.3786 14.5379C13.5786 14.4373 13.8214 14.3871 14.05 14.3871C14.9286 14.3727 15.8214 14.3871 16.6929 14.3871H19.3357C19.9714 14.3871 20.2929 14.7103 20.3786 15.3496C20.4643 15.9888 20.2429 16.585 20.1286 17.1955C19.8071 19.0271 19.4571 20.8444 19.1357 22.6688C19.0214 23.2937 18.9143 23.9186 18.8143 24.5507C18.7929 24.7374 18.8 24.9529 18.8143 25.1397C18.9286 25.9513 19.3857 26.2458 20.15 26.0519C20.3857 25.9872 20.5929 25.8508 20.8214 25.743C21.0357 25.6425 21.2429 25.506 21.4643 25.4198C21.8429 25.2618 22.1571 25.5132 22.0714 25.9082Z" fill="#426CFF"/>
<path d="M29.9357 36H30.0786C31.4571 35.9928 32.3071 35.6265 32.6643 34.8867C32.7929 34.6209 33.0286 33.917 32.4286 33.1197L30.5143 30.5339C30.2857 30.2394 30.1571 30.0527 30.1071 29.9162C33.2643 26.5978 35 22.2594 35 17.6696C35 7.92977 27.15 0 17.5 0C7.84286 0 0 7.92259 0 17.6696C0 27.4022 7.84286 35.3248 17.4929 35.3248C19.3857 35.3248 21.25 35.016 23.0214 34.4198C23.1 34.4413 23.1571 34.4629 23.1786 34.4773C23.8786 34.8077 24.5 35.0591 25.1571 35.2817C25.3857 35.3536 25.6 35.411 25.8143 35.4685L26.1071 35.5475C27.2286 35.842 28.5143 36 29.9357 36ZM17.4929 2.49242C25.7786 2.49242 32.5286 9.30168 32.5286 17.6696C32.5286 21.7063 30.9643 25.5132 28.1286 28.3935L27.9786 28.5443L27.8857 28.7382C27.6 29.3416 27.5571 30.0096 27.75 30.6704C27.9429 31.2378 28.2357 31.6329 28.5357 32.0351L29.6214 33.5076C28.5429 33.486 27.5857 33.3639 26.7643 33.1341L26.4286 33.0479C26.2571 33.0048 26.0857 32.9617 25.9143 32.9042C25.3643 32.7175 24.8286 32.502 24.2929 32.2506C23.9857 32.0782 23.55 31.9489 23.0357 31.9058L22.65 31.8986L22.45 31.9705C20.8571 32.5379 19.1857 32.8252 17.4786 32.8252C9.2 32.8252 2.45714 26.0231 2.45714 17.6624C2.47143 9.30167 9.20714 2.49242 17.4929 2.49242Z" fill="#426CFF"/>
</svg>
