<svg width="56" height="50" viewBox="0 0 56 50" fill="none" xmlns="http://www.w3.org/2000/svg">
<path d="M32.5657 10.9C32.1657 10.7 31.7657 10.8 31.4657 11.1L19.8657 25.4C19.6657 25.7 19.5657 26 19.7657 26.3C19.8657 26.6 20.1657 26.8 20.5657 26.8L25.8657 26.9L22.0657 36.7C21.8657 37.1 22.0657 37.5 22.4657 37.8C22.5657 37.9 22.7657 37.9 22.8657 37.9C23.0657 37.9 23.3657 37.8 23.5657 37.6L35.7657 23.6C35.9657 23.3 36.0657 23 35.8657 22.7C35.7657 22.4 35.3657 22.2 35.0657 22.2H29.0657L32.9657 12C33.1657 11.6 32.9657 11.2 32.5657 10.9ZM26.9657 22.7C26.8657 23 26.8657 23.3 27.0657 23.5C27.2657 23.7 27.4657 23.9 27.7657 23.9H33.0657L25.3657 32.9L27.8657 26.5C27.9657 26.2 27.9657 25.9 27.7657 25.7C27.5657 25.5 27.3657 25.3 27.0657 25.3H22.3657L29.3657 16.6L26.9657 22.7ZM55.7657 23.5C55.5657 23.2 55.2657 23 54.9657 23H52.7657C51.7657 10 41.0657 0 27.9657 0C19.3657 0 11.4657 4.4 6.86568 11.7L8.36568 12.6C12.6657 5.8 19.9657 1.8 27.9657 1.8C40.3657 1.8 50.5657 11.5 51.0657 24C51.0657 24.5 51.4657 24.8 51.9657 24.8H53.2657L49.9657 29.4L46.6657 24.8H47.8657C48.0657 24.8 48.3657 24.7 48.4657 24.5C48.6657 24.3 48.7657 24.1 48.6657 23.9C48.2657 12.7 39.0657 4 27.9657 4C24.5657 4 21.1657 4.8 18.2657 6.4L19.0657 7.9C21.7657 6.5 24.8657 5.7 27.9657 5.7C37.8657 5.7 46.0657 13.2 46.9657 23H44.9657C44.6657 23 44.3657 23.2 44.1657 23.5C44.0657 23.8 44.0657 24.1 44.2657 24.4L49.2657 31.4C49.4657 31.6 49.6657 31.8 49.9657 31.8C50.2657 31.8 50.4657 31.7 50.6657 31.4L55.6657 24.4C55.8657 24.1 55.8657 23.8 55.7657 23.5ZM27.8657 48.1C15.4657 48.1 5.26568 38.4 4.76568 25.9C4.76568 25.4 4.36568 25.1 3.86568 25.1H2.56569L5.86568 20.5L9.16569 25.1H7.96569C7.76569 25.1 7.46568 25.2 7.36568 25.4C7.16569 25.6 7.06569 25.8 7.16569 26C7.76569 37.1 16.8657 45.8 27.9657 45.8C31.3657 45.8 34.7657 45 37.6657 43.4L36.7657 41.9C34.0657 43.3 30.9657 44.1 27.8657 44.1C17.9657 44.1 9.76568 36.6 8.86568 26.8H10.8657C11.1657 26.8 11.4657 26.6 11.6657 26.3C11.7657 26 11.7657 25.7 11.5657 25.4L6.56569 18.4C6.36569 18.2 6.16569 18 5.86568 18C5.56568 18 5.36569 18.1 5.16569 18.4L0.165685 25.4C-0.0343149 25.7 -0.0343144 26 0.0656856 26.3C0.165686 26.6 0.565685 26.8 0.865685 26.8H3.06569C4.06569 39.8 14.7657 49.8 27.8657 49.8C36.4657 49.8 44.3657 45.4 48.9657 38.1L47.4657 37.2C43.1657 44 35.8657 48.1 27.8657 48.1Z" fill="white"/>
</svg>
