<svg width="50" height="51" viewBox="0 0 50 51" fill="none" xmlns="http://www.w3.org/2000/svg">
<path d="M49.4 20.575L43.2 17.375L49.4 14.175C49.7 13.975 49.9 13.775 49.9 13.375C49.9 12.975 49.7 12.775 49.4 12.575L25.4 0.075C25.1 -0.025 24.8 -0.025 24.6 0.075L0.6 12.575C0.3 12.775 0.1 12.975 0.1 13.375C0.1 13.775 0.3 13.975 0.6 14.175L6.8 17.375L0.6 20.575C0.3 20.775 0.1 20.975 0.1 21.375C0.1 21.575 0.2 21.775 0.3 21.875H0.1V29.375C0.1 29.675 0.3 29.975 0.5 30.175L6.5 33.575L0.5 36.675C0.2 36.875 0 37.075 0 37.475C0 37.875 0.2 38.075 0.5 38.275L24.5 50.775C24.6 50.875 24.8 50.875 24.9 50.875C25 50.875 25.2 50.875 25.3 50.775L49.3 38.275C49.6 38.075 49.8 37.875 49.8 37.475C49.8 37.075 49.6 36.875 49.3 36.675L43.3 33.575L49.3 30.175C49.6 29.975 49.7 29.775 49.7 29.375V21.875H49.5C49.6 21.775 49.7 21.575 49.7 21.375C49.9 21.075 49.7 20.775 49.4 20.575ZM2.9 13.375L25 1.875L47.1 13.375L25 24.875L2.9 13.375ZM6.1 31.275L1.9 28.875V22.875L6.2 25.075V31.275H6.1ZM47.1 37.375L25 48.875L2.9 37.375L8.4 34.475L24.6 43.575C24.7 43.675 24.9 43.675 25 43.675C25.1 43.675 25.3 43.675 25.4 43.575L41.6 34.475L47.1 37.375ZM7.9 32.275V25.975L12.2 28.175V34.675L7.9 32.275ZM13.9 35.575V29.075L18.2 31.275V37.975L13.9 35.575ZM30.3 38.875L25.8 41.375V34.375L30.1 32.175V38.875H30.3ZM24.1 41.375L19.7 38.875H19.9V32.175L24.2 34.375V41.375H24.1ZM31.9 37.975V31.275L36.2 29.075V35.575L31.9 37.975ZM37.9 34.675V28.175L42.2 25.975V32.275L37.9 34.675ZM25 32.875L2.9 21.375L8.7 18.375L24.6 26.675C24.7 26.775 24.9 26.775 25 26.775C25.1 26.775 25.3 26.775 25.4 26.675L41.3 18.375L47.1 21.375L25 32.875ZM48.1 28.875L43.8 31.275V25.075L48.1 22.875V28.875Z" fill="white"/>
</svg>
