<svg width="51" height="47" viewBox="0 0 51 47" fill="none" xmlns="http://www.w3.org/2000/svg">
<path d="M6.9 34.1L7.6 35.7C8.2 35.4 8.8 35.2 9.4 35L8.8 33.4C8.2 33.6 7.5 33.8 6.9 34.1ZM3.3 10.2L4.3 11.7C4.8 11.3 5.4 11 6 10.7L5.1 9.2C4.4 9.4 3.8 9.8 3.3 10.2ZM3.3 23.2L4.3 24.7C4.8 24.3 5.4 24 6 23.7L5.1 22.2C4.4 22.4 3.8 22.8 3.3 23.2ZM6.9 21.1L7.6 22.7C8.2 22.4 8.8 22.2 9.4 22L8.8 20.4C8.2 20.6 7.5 20.8 6.9 21.1ZM0 38.7L1.2 40C1.2 40 1.7 39.5 2.7 38.8L1.6 37.4C0.599999 38.1 0 38.7 0 38.7ZM6.9 8.1L7.6 9.7C8.2 9.4 8.8 9.2 9.4 9L8.8 7.4C8.2 7.6 7.5 7.8 6.9 8.1ZM0 25.7L1.2 27C1.2 27 1.7 26.5 2.7 25.8L1.6 24.4C0.599999 25.1 0 25.7 0 25.7ZM0 12.7L1.2 14C1.2 14 1.7 13.5 2.7 12.8L1.6 11.4C0.599999 12.1 0 12.7 0 12.7ZM3.3 36.2L4.3 37.7C4.8 37.3 5.4 37 6 36.7L5.1 35.2C4.4 35.4 3.8 35.8 3.3 36.2ZM18.8 8.3C19.4 8.4 20.1 8.5 20.7 8.6L21.1 6.9C20.4 6.8 19.8 6.6 19.1 6.6L18.8 8.3ZM15 8C15.7 8 16.3 8 16.9 8.1L17 6.4C16.3 6.4 15.7 6.3 14.9 6.3L15 8ZM18.8 21.3C19.4 21.4 20.1 21.5 20.7 21.6L21.1 19.9C20.4 19.8 19.8 19.6 19.1 19.6L18.8 21.3ZM18.8 34.3C19.4 34.4 20.1 34.5 20.7 34.6L21.1 32.9C20.4 32.8 19.8 32.6 19.1 32.6L18.8 34.3ZM48.3 25.8L50.7 19C50.8 18.7 50.8 18.4 50.6 18.2C50.4 18 50.2 17.8 49.9 17.8L42.9 18V19.7L47.5 19.6C45.5 21 40.9 24 36.6 24C33.5 24 31.3 23.5 29.4 22.8V11.7C31.3 12.3 33.6 12.8 36.6 12.8C41 12.8 45.6 10.2 47.9 8.5L46.7 12.2L48.4 12.8L50.8 6C50.9 5.7 50.9 5.4 50.7 5.2C50.5 5 50.3 4.8 50 4.8L43 5V6.7L47.6 6.6C45.6 8 41 11 36.7 11C33.6 11 31.4 10.5 29.5 9.8V1.8C29.5 0.799999 28.7 0 27.7 0H24.7C23.7 0 22.9 0.799999 22.9 1.8V7.9L22.6 9.1C22.7 9.1 22.8 9.2 22.9 9.2V20.9L22.6 22.1C22.7 22.1 22.8 22.2 22.9 22.2V33.9L22.6 35.1C22.7 35.1 22.8 35.2 22.9 35.2V44.8C22.9 45.8 23.7 46.6 24.7 46.6H27.7C28.7 46.6 29.5 45.8 29.5 44.8V37.7C31.4 38.3 33.7 38.8 36.7 38.8C41.1 38.8 45.7 36.2 48 34.5L46.7 38.2L48.4 38.8L50.8 32C50.9 31.7 50.9 31.4 50.7 31.2C50.5 31 50.3 30.8 50 30.8L43 31V32.7L47.6 32.6C45.6 34 41 37 36.7 37C33.6 37 31.4 36.5 29.5 35.8V24.7C31.4 25.3 33.7 25.8 36.7 25.8C41.1 25.8 45.7 23.2 48 21.5L46.7 25.2L48.3 25.8ZM27.7 44.8H24.7V1.8H27.7V44.8ZM10.8 32.7L11.2 34.4C11.8 34.2 12.5 34.1 13.1 34.1L12.9 32.4C12.2 32.4 11.5 32.6 10.8 32.7ZM10.8 19.7L11.2 21.4C11.8 21.2 12.5 21.1 13.1 21.1L12.9 19.4C12.2 19.4 11.5 19.6 10.8 19.7ZM15 21C15.7 21 16.3 21 16.9 21.1L17 19.4C16.3 19.4 15.7 19.3 14.9 19.3L15 21ZM10.8 6.7L11.2 8.4C11.8 8.2 12.5 8.1 13.1 8.1L12.9 6.4C12.2 6.4 11.5 6.6 10.8 6.7ZM15 34C15.7 34 16.3 34 16.9 34.1L17 32.4C16.3 32.4 15.7 32.3 14.9 32.3L15 34Z" fill="white"/>
</svg>
