<svg width="44" height="55" viewBox="0 0 44 55" fill="none" xmlns="http://www.w3.org/2000/svg">
<path d="M7.6 32.8C7.6 32.5 7.6 32.2 7.6 31.9H3.8V33.7H7.6C7.6 33.4 7.6 33.1 7.6 32.8ZM5.8 24.6L7.4 25.5C7.7 25 8 24.5 8.3 24L6.7 23.1L5.8 24.6ZM5.8 41L6.7 42.5L8.3 41.6C8 41.1 7.7 40.6 7.4 40.1L5.8 41ZM37.8 24.6L36.9 23.1L35.3 24C35.6 24.5 35.9 25 36.2 25.5L37.8 24.6ZM31.6 17.6L30 16.8L29.1 18.4C29.6 18.7 30.1 19 30.6 19.3L31.6 17.6ZM22.7 18.6V14.8H20.9V18.6C21.2 18.6 21.5 18.6 21.8 18.6C22.1 18.6 22.4 18.6 22.7 18.6ZM29.1 47.2L30 48.8L31.5 47.9L30.6 46.3C30.1 46.7 29.6 47 29.1 47.2ZM12 48L13.5 48.9L14.4 47.3C13.9 47 13.4 46.7 12.9 46.4L12 48ZM36 31.9C36 32.2 36 32.5 36 32.8C36 33.1 36 33.4 36 33.7H39.8V31.9H36ZM32.7 13.8L33.9 11.7L34.9 12.3L35.8 10.8L32.3 8.8L31.4 10.3L32.4 10.9L31.2 13.1C28.6 11.9 25.8 11.1 22.8 11V9.7C26.2 9.4 28.8 7.4 28.8 4.9C28.8 2.2 25.8 0 21.9 0C18 0 15 2.1 15 4.9C15 7.4 17.6 9.4 21 9.7V11C18 11.1 15.2 11.8 12.6 13.1L11.3 10.8L12.3 10.2L11.4 8.7L7.9 10.7L8.8 12.2L9.8 11.6L11 13.8C4.4 17.6 0 24.7 0 32.8C0 44.9 9.8 54.7 21.9 54.7C34 54.7 43.7 44.9 43.7 32.8C43.7 24.7 39.2 17.6 32.7 13.8ZM16.7 4.8C16.7 3.1 19 1.7 21.8 1.7C24.6 1.7 26.9 3.1 26.9 4.8C26.9 6.3 25 7.6 22.6 7.9V6.7H23.8V4.9H19.8V6.7H20.9V7.9C18.5 7.6 16.7 6.3 16.7 4.8ZM21.8 52.9C10.7 52.9 1.7 43.9 1.7 32.8C1.7 21.7 10.7 12.7 21.8 12.7C32.9 12.7 41.9 21.7 41.9 32.8C41.9 43.9 32.9 52.9 21.8 52.9ZM35.3 41.6L36.9 42.5L37.8 41L36.2 40.1C36 40.6 35.7 41.1 35.3 41.6ZM12 17.6L12.9 19.2C13.4 18.9 13.9 18.6 14.4 18.3L13.6 16.8L12 17.6ZM20.9 47V50.8H22.7V47C22.4 47 22.1 47 21.8 47C21.5 47 21.2 47 20.9 47ZM23.2 30.3C22.8 30.1 22.3 29.9 21.8 29.9C20.2 29.9 18.9 31.2 18.9 32.8C18.9 34.4 20.2 35.7 21.8 35.7C23.4 35.7 24.7 34.4 24.7 32.8C24.7 32.4 24.6 32 24.4 31.6L32.8 23.2L31.6 22L23.2 30.3ZM21.8 34.4C20.9 34.4 20.2 33.7 20.2 32.8C20.2 31.9 20.9 31.2 21.8 31.2C22.7 31.2 23.4 31.9 23.4 32.8C23.4 33.7 22.7 34.4 21.8 34.4Z" fill="white"/>
</svg>
