<svg width="30" height="20" viewBox="0 0 30 20" fill="none" xmlns="http://www.w3.org/2000/svg">
<path d="M29.3983 3.12952C29.0642 1.90578 28.0846 0.941123 26.8424 0.611608C24.5731 0 15.4955 0 15.4955 0C15.4955 0 6.41831 0 4.14897 0.58842C2.93066 0.917586 1.92724 1.90596 1.59306 3.12952C0.99585 5.36465 0.99585 10 0.99585 10C0.99585 10 0.99585 14.6587 1.59306 16.8705C1.92759 18.094 2.90677 19.0587 4.14915 19.3882C6.44221 20 15.4959 20 15.4959 20C15.4959 20 24.5731 20 26.8424 19.4116C28.0848 19.0822 29.0642 18.1176 29.3987 16.894C29.9957 14.6587 29.9957 10.0235 29.9957 10.0235C29.9957 10.0235 30.0196 5.36465 29.3983 3.12952V3.12952ZM12.6054 14.2823V5.7177L20.1539 10L12.6054 14.2823Z" fill="var(--fill)"/>
</svg>
