<?xml version="1.0" encoding="utf-8"?><svg xmlns="http://www.w3.org/2000/svg" xmlns:xlink="http://www.w3.org/1999/xlink"><symbol fill="none" viewBox="0 0 22 22" id="facebook" xmlns="http://www.w3.org/2000/svg"><path d="M22 11c0-6.074-4.926-11-11-11S0 4.926 0 11s4.926 11 11 11c.065 0 .129-.001.193-.003v-8.563H8.83V10.68h2.363V8.653c0-2.35 1.435-3.63 3.532-3.63 1.004 0 1.867.076 2.119.109v2.457h-1.446c-1.14 0-1.362.542-1.362 1.337v1.754h2.728l-.356 2.754h-2.372v8.141C18.634 20.257 22 16.021 22 11z" fill="var(--fill)"/></symbol><symbol fill="none" viewBox="0 0 22 22" id="instagram" xmlns="http://www.w3.org/2000/svg"><path d="M21.94 6.468c-.052-1.169-.24-1.973-.512-2.669a5.368 5.368 0 00-1.272-1.951A5.413 5.413 0 0018.21.58c-.7-.27-1.5-.46-2.668-.511C14.363.013 13.989 0 11.002 0s-3.36.013-4.534.064C5.3.116 4.495.305 3.8.576c-.739.28-1.4.709-1.951 1.272A5.417 5.417 0 00.58 3.795c-.27.7-.46 1.5-.511 2.669C.013 7.64 0 8.015 0 11.002s.013 3.361.064 4.534c.052 1.17.241 1.973.512 2.67.28.738.713 1.4 1.272 1.95.55.559 1.216.993 1.947 1.268.7.271 1.5.46 2.669.512 1.173.051 1.547.064 4.534.064s3.36-.013 4.534-.064c1.169-.052 1.973-.241 2.669-.512a5.628 5.628 0 003.219-3.219c.27-.7.46-1.5.511-2.669.052-1.173.065-1.547.065-4.534s-.005-3.36-.056-4.534zm-1.981 8.982c-.048 1.075-.228 1.655-.378 2.042a3.65 3.65 0 01-2.09 2.088c-.386.15-.97.331-2.04.379-1.161.051-1.51.064-4.444.064-2.936 0-3.288-.013-4.444-.064-1.075-.048-1.655-.228-2.042-.378a3.386 3.386 0 01-1.263-.821 3.42 3.42 0 01-.821-1.264c-.15-.387-.331-.971-.378-2.041-.052-1.16-.065-1.509-.065-4.444 0-2.936.013-3.288.065-4.444.047-1.074.227-1.655.378-2.041.176-.478.455-.912.825-1.264a3.415 3.415 0 011.264-.82c.386-.151.97-.332 2.041-.38 1.16-.05 1.509-.064 4.444-.064 2.94 0 3.288.013 4.444.065 1.074.047 1.654.228 2.041.378.477.176.911.456 1.264.82.365.358.644.787.82 1.265.15.386.331.97.379 2.041.051 1.16.064 1.508.064 4.444 0 2.935-.013 3.279-.064 4.44z" fill="var(--fill)"/><path d="M11.002 5.35a5.653 5.653 0 00-5.651 5.652 5.653 5.653 0 005.651 5.652 5.653 5.653 0 005.652-5.652 5.653 5.653 0 00-5.652-5.651zm0 9.318a3.667 3.667 0 11.001-7.333 3.667 3.667 0 010 7.333zm7.195-9.541a1.32 1.32 0 11-2.64 0 1.32 1.32 0 012.64 0z" fill="var(--fill)"/></symbol><symbol fill="none" viewBox="0 0 16 10" id="lang" xmlns="http://www.w3.org/2000/svg"><path fill="#0085FF" d="M0 0h16v5H0z"/><path fill="#FFDB5A" d="M0 5h16v5H0z"/></symbol><symbol fill="none" viewBox="0 0 16 16" id="phone" xmlns="http://www.w3.org/2000/svg"><path fill-rule="evenodd" clip-rule="evenodd" d="M1.12 6.763l8.117 8.116a3.824 3.824 0 005.41 0L16 13.527l-4.057-4.059-1.354 1.353a1.913 1.913 0 01-2.705 0L5.18 8.116a1.913 1.913 0 010-2.706l1.353-1.353L2.473 0 1.121 1.352a3.826 3.826 0 000 5.411z" fill="#fff"/></symbol><symbol fill="none" viewBox="0 0 30 20" id="youtube" xmlns="http://www.w3.org/2000/svg"><path d="M29.398 3.13A3.606 3.606 0 0026.842.612C24.573 0 15.496 0 15.496 0S6.418 0 4.149.588A3.679 3.679 0 001.593 3.13C.996 5.365.996 10 .996 10s0 4.659.597 6.87a3.607 3.607 0 002.556 2.518C6.442 20 15.496 20 15.496 20s9.077 0 11.346-.588a3.607 3.607 0 002.557-2.518c.597-2.235.597-6.87.597-6.87s.024-4.66-.598-6.894zM12.605 14.282V5.718L20.154 10l-7.549 4.282z" fill="var(--fill)"/></symbol></svg>